<svg width="86" height="15" viewBox="0 0 86 15" fill="none" xmlns="http://www.w3.org/2000/svg">
<path d="M13.9412 6.03299C13.8743 5.82533 13.7512 5.64023 13.5856 5.49819C13.42 5.35615 13.2183 5.26272 13.0028 5.22823L9.62216 4.67882L8.05497 1.63341C7.95515 1.43953 7.80385 1.2769 7.61767 1.16336C7.4315 1.04981 7.21765 0.989746 6.99958 0.989746C6.78151 0.989746 6.56766 1.04981 6.38148 1.16336C6.19531 1.2769 6.04401 1.43953 5.94418 1.63341L4.377 4.67882L0.996381 5.22823C0.781151 5.26326 0.579729 5.3569 0.414215 5.49887C0.248701 5.64084 0.125491 5.82566 0.0581037 6.03305C-0.00928335 6.24044 -0.0182434 6.46239 0.0322066 6.67453C0.0826566 6.88668 0.190567 7.08083 0.344098 7.23568L2.75618 9.66725L2.2341 13.0522C2.2006 13.2678 2.2272 13.4884 2.31099 13.6899C2.39478 13.8913 2.53251 14.0658 2.70902 14.194C2.88554 14.3223 3.094 14.3994 3.31149 14.4168C3.52897 14.4342 3.74705 14.3914 3.94175 14.2929L6.99958 12.7503L10.0575 14.2929C10.2522 14.3912 10.4702 14.4339 10.6876 14.4164C10.905 14.3988 11.1134 14.3217 11.2899 14.1935C11.4663 14.0653 11.604 13.891 11.6879 13.6896C11.7717 13.4883 11.7985 13.2677 11.7651 13.0522L11.2431 9.66725L13.6551 7.23568C13.8092 7.08113 13.9174 6.88697 13.9679 6.67471C14.0184 6.46244 14.0092 6.24034 13.9412 6.03299Z" fill="#FFC700"/>
<path d="M31.9412 6.03299C31.8743 5.82533 31.7512 5.64023 31.5856 5.49819C31.42 5.35615 31.2183 5.26272 31.0028 5.22823L27.6222 4.67882L26.055 1.63341C25.9551 1.43953 25.8038 1.2769 25.6177 1.16336C25.4315 1.04981 25.2176 0.989746 24.9996 0.989746C24.7815 0.989746 24.5677 1.04981 24.3815 1.16336C24.1953 1.2769 24.044 1.43953 23.9442 1.63341L22.377 4.67882L18.9964 5.22823C18.7812 5.26326 18.5797 5.3569 18.4142 5.49887C18.2487 5.64084 18.1255 5.82566 18.0581 6.03305C17.9907 6.24044 17.9818 6.46239 18.0322 6.67453C18.0827 6.88668 18.1906 7.08083 18.3441 7.23568L20.7562 9.66725L20.2341 13.0522C20.2006 13.2678 20.2272 13.4884 20.311 13.6899C20.3948 13.8913 20.5325 14.0658 20.709 14.194C20.8855 14.3223 21.094 14.3994 21.3115 14.4168C21.529 14.4342 21.7471 14.3914 21.9417 14.2929L24.9996 12.7503L28.0575 14.2929C28.2522 14.3912 28.4702 14.4339 28.6876 14.4164C28.905 14.3988 29.1134 14.3217 29.2899 14.1935C29.4663 14.0653 29.604 13.891 29.6879 13.6896C29.7717 13.4883 29.7985 13.2677 29.7651 13.0522L29.2431 9.66725L31.6551 7.23568C31.8092 7.08113 31.9174 6.88697 31.9679 6.67471C32.0184 6.46244 32.0092 6.24034 31.9412 6.03299Z" fill="#FFC700"/>
<path d="M49.9412 6.03299C49.8743 5.82533 49.7512 5.64023 49.5856 5.49819C49.42 5.35615 49.2183 5.26272 49.0028 5.22823L45.6222 4.67882L44.055 1.63341C43.9551 1.43953 43.8038 1.2769 43.6177 1.16336C43.4315 1.04981 43.2176 0.989746 42.9996 0.989746C42.7815 0.989746 42.5677 1.04981 42.3815 1.16336C42.1953 1.2769 42.044 1.43953 41.9442 1.63341L40.377 4.67882L36.9964 5.22823C36.7812 5.26326 36.5797 5.3569 36.4142 5.49887C36.2487 5.64084 36.1255 5.82566 36.0581 6.03305C35.9907 6.24044 35.9818 6.46239 36.0322 6.67453C36.0827 6.88668 36.1906 7.08083 36.3441 7.23568L38.7562 9.66725L38.2341 13.0522C38.2006 13.2678 38.2272 13.4884 38.311 13.6899C38.3948 13.8913 38.5325 14.0658 38.709 14.194C38.8855 14.3223 39.094 14.3994 39.3115 14.4168C39.529 14.4342 39.7471 14.3914 39.9417 14.2929L42.9996 12.7503L46.0575 14.2929C46.2522 14.3912 46.4702 14.4339 46.6876 14.4164C46.905 14.3988 47.1134 14.3217 47.2899 14.1935C47.4663 14.0653 47.604 13.891 47.6879 13.6896C47.7717 13.4883 47.7985 13.2677 47.7651 13.0522L47.2431 9.66725L49.6551 7.23568C49.8092 7.08113 49.9174 6.88697 49.9679 6.67471C50.0184 6.46244 50.0092 6.24034 49.9412 6.03299Z" fill="#FFC700"/>
<path d="M67.9412 6.03299C67.8743 5.82533 67.7512 5.64023 67.5856 5.49819C67.42 5.35615 67.2183 5.26272 67.0028 5.22823L63.6222 4.67882L62.055 1.63341C61.9551 1.43953 61.8038 1.2769 61.6177 1.16336C61.4315 1.04981 61.2176 0.989746 60.9996 0.989746C60.7815 0.989746 60.5677 1.04981 60.3815 1.16336C60.1953 1.2769 60.044 1.43953 59.9442 1.63341L58.377 4.67882L54.9964 5.22823C54.7812 5.26326 54.5797 5.3569 54.4142 5.49887C54.2487 5.64084 54.1255 5.82566 54.0581 6.03305C53.9907 6.24044 53.9818 6.46239 54.0322 6.67453C54.0827 6.88668 54.1906 7.08083 54.3441 7.23568L56.7562 9.66725L56.2341 13.0522C56.2006 13.2678 56.2272 13.4884 56.311 13.6899C56.3948 13.8913 56.5325 14.0658 56.709 14.194C56.8855 14.3223 57.094 14.3994 57.3115 14.4168C57.529 14.4342 57.7471 14.3914 57.9417 14.2929L60.9996 12.7503L64.0575 14.2929C64.2522 14.3912 64.4702 14.4339 64.6876 14.4164C64.905 14.3988 65.1134 14.3217 65.2899 14.1935C65.4663 14.0653 65.604 13.891 65.6879 13.6896C65.7717 13.4883 65.7985 13.2677 65.7651 13.0522L65.2431 9.66725L67.6551 7.23568C67.8092 7.08113 67.9174 6.88697 67.9679 6.67471C68.0184 6.46244 68.0092 6.24034 67.9412 6.03299Z" fill="#FFC700"/>
<path d="M85.9412 6.03299C85.8743 5.82533 85.7512 5.64023 85.5856 5.49819C85.42 5.35615 85.2183 5.26272 85.0028 5.22823L81.6222 4.67882L80.055 1.63341C79.9551 1.43953 79.8038 1.2769 79.6177 1.16336C79.4315 1.04981 79.2176 0.989746 78.9996 0.989746C78.7815 0.989746 78.5677 1.04981 78.3815 1.16336C78.1953 1.2769 78.044 1.43953 77.9442 1.63341L76.377 4.67882L72.9964 5.22823C72.7812 5.26326 72.5797 5.3569 72.4142 5.49887C72.2487 5.64084 72.1255 5.82566 72.0581 6.03305C71.9907 6.24044 71.9818 6.46239 72.0322 6.67453C72.0827 6.88668 72.1906 7.08083 72.3441 7.23568L74.7562 9.66725L74.2341 13.0522C74.2006 13.2678 74.2272 13.4884 74.311 13.6899C74.3948 13.8913 74.5325 14.0658 74.709 14.194C74.8855 14.3223 75.094 14.3994 75.3115 14.4168C75.529 14.4342 75.7471 14.3914 75.9417 14.2929L78.9996 12.7503L82.0575 14.2929C82.2522 14.3912 82.4702 14.4339 82.6876 14.4164C82.905 14.3988 83.1134 14.3217 83.2899 14.1935C83.4663 14.0653 83.604 13.891 83.6879 13.6896C83.7717 13.4883 83.7985 13.2677 83.7651 13.0522L83.2431 9.66725L85.6551 7.23568C85.8092 7.08113 85.9174 6.88697 85.9679 6.67471C86.0184 6.46244 86.0092 6.24034 85.9412 6.03299Z" fill="#D4D4D4"/>
</svg>
